<svg width="19" height="20" viewBox="0 0 19 20" fill="none" xmlns="http://www.w3.org/2000/svg">
<path fill-rule="evenodd" clip-rule="evenodd" d="M15.25 4.16667H5.74998C4.87553 4.16667 4.16665 4.91286 4.16665 5.83333V15C4.16665 15.9205 4.87553 16.6667 5.74998 16.6667H15.25C16.1245 16.6667 16.8333 15.9205 16.8333 15V5.83333C16.8333 4.91286 16.1245 4.16667 15.25 4.16667ZM5.74998 2.5C4.00108 2.5 2.58331 3.99238 2.58331 5.83333V15C2.58331 16.8409 4.00108 18.3333 5.74998 18.3333H15.25C16.9989 18.3333 18.4167 16.8409 18.4167 15V5.83333C18.4167 3.99238 16.9989 2.5 15.25 2.5H5.74998Z" fill="white"/>
<path fill-rule="evenodd" clip-rule="evenodd" d="M4.16669 6.66668H16.8334V8.33334H4.16669V6.66668Z" fill="white"/>
<path fill-rule="evenodd" clip-rule="evenodd" d="M6.54166 1.66668C6.97889 1.66668 7.33333 2.03978 7.33333 2.50001V5.00001C7.33333 5.46024 6.97889 5.83334 6.54166 5.83334C6.10444 5.83334 5.75 5.46024 5.75 5.00001V2.50001C5.75 2.03978 6.10444 1.66668 6.54166 1.66668Z" fill="white"/>
<path fill-rule="evenodd" clip-rule="evenodd" d="M10.5 1.66668C10.9372 1.66668 11.2916 2.03978 11.2916 2.50001V5.00001C11.2916 5.46024 10.9372 5.83334 10.5 5.83334C10.0627 5.83334 9.70831 5.46024 9.70831 5.00001V2.50001C9.70831 2.03978 10.0627 1.66668 10.5 1.66668Z" fill="white"/>
<path fill-rule="evenodd" clip-rule="evenodd" d="M14.4584 1.66668C14.8956 1.66668 15.25 2.03978 15.25 2.50001V5.00001C15.25 5.46024 14.8956 5.83334 14.4584 5.83334C14.0211 5.83334 13.6667 5.46024 13.6667 5.00001V2.50001C13.6667 2.03978 14.0211 1.66668 14.4584 1.66668Z" fill="white"/>
</svg>
